<svg width="32" height="32" xmlns="http://www.w3.org/2000/svg">
  <style>
    path {
      fill: black;
    }
    @media (prefers-color-scheme: dark) {
      path {
        fill: white;
      }
    }
  </style>
 <g>
  <title>Layer 1</title>
  <path d="m31.11,6.51l-3.34,-0.75l0,0a0.88,0.95 0 0 0 -0.16,-0.26a5.24,5.69 0 0 0 -7.4,0l-19.52,21.19a0.81,0.88 0 0 0 1.14,1.26l6.78,-7.36a12.52,13.6 0 0 0 4.5,0.96a8.62,9.35 0 0 0 6.21,-2.61c2.55,-2.77 3.12,-7.18 1.53,-11.63l0.51,-0.55l0,0a3.62,3.93 0 0 1 4.86,-0.25l0,9.2a5.7,6.18 0 0 1 -1.67,4.36a5.7,6.19 0 0 1 -4.01,1.81l-5.35,0a0.81,0.88 0 0 0 -0.57,0.26a0.82,0.89 0 0 0 -0.24,0.62l0,4.55a0.81,0.88 0 0 0 1.62,0l0,-3.67l1.72,0l0,3.67a0.81,0.88 0 0 0 1.62,0l0,-3.67l1.21,0a7.31,7.94 0 0 0 7.3,-7.93l0,-7.79l3.26,-0.72l0,0a0.33,0.35 0 0 0 0,-0.69zm-12.94,11.19c-1.95,2.11 -5.05,2.66 -8.29,1.53l9.71,-10.55c1.04,3.52 0.54,6.89 -1.41,9l0,0.01z" id="svg_1"/>
  <path d="m25.11,7.59c0,1.05 -1.57,1.05 -1.57,0c0,-1.05 1.57,-1.05 1.57,0" id="svg_2"/>
 </g>
</svg>